<svg xmlns="http://www.w3.org/2000/svg" viewBox="0 0 1200 300" width="600" height="150" role="img" aria-label="parpl logo">
  <title>parpl</title>
  <defs>
    <filter id="shadow" x="-20%" y="-20%" width="140%" height="140%">
      <feDropShadow dx="0" dy="6" stdDeviation="8" flood-color="#000000" flood-opacity="0.18" />
    </filter>
  </defs>

  <rect width="1200" height="300" fill="none" />

  <g filter="url(#shadow)">
    <g transform="translate(342.000 216.900) scale(0.200000 -0.200000)">
      <path fill="#7851A9" transform="translate(0.000 0)" d="M44 -167 43 469H168V412Q185 436 204.5 450.5Q224 465 247.0 472.0Q270 479 296 479Q334 479 367.0 463.0Q400 447 425.0 415.5Q450 384 464.0 338.0Q478 292 478 231Q478 170 463.0 124.0Q448 78 422.5 47.5Q397 17 363.5 2.5Q330 -12 294 -12Q270 -12 247.0 -7.0Q224 -2 204.5 8.0Q185 18 172 33V-167ZM256 84Q278 84 295.5 92.0Q313 100 326.0 117.5Q339 135 346.0 165.5Q353 196 353 239Q353 283 341.5 315.0Q330 347 309.5 364.0Q289 381 261 381Q239 381 222.0 372.5Q205 364 194.0 345.5Q183 327 177.5 297.5Q172 268 172 228Q172 199 175.5 175.5Q179 152 185.5 135.0Q192 118 202.0 106.5Q212 95 225.5 89.5Q239 84 256 84Z" />
      <path fill="#7851A9" transform="translate(520.000 0)" d="M193 -12Q117 -12 74.0 24.5Q31 61 31 120Q31 158 47.5 189.5Q64 221 97.5 245.0Q131 269 182.0 282.5Q233 296 301 296Q307 296 317.0 295.5Q327 295 339.0 295.0Q351 295 361 294L364 208Q356 209 343.5 209.0Q331 209 318.0 209.0Q305 209 297 209Q255 209 228.5 203.5Q202 198 186.5 188.0Q171 178 165.0 165.0Q159 152 159 137Q159 124 163.5 113.5Q168 103 176.0 97.5Q184 92 195.5 89.0Q207 86 220 86Q247 86 267.0 95.0Q287 104 300.5 123.5Q314 143 320.5 173.5Q327 204 327 246Q327 301 316.0 330.0Q305 359 285.0 370.0Q265 381 235 381Q204 381 176.5 371.5Q149 362 121 333L50 408Q92 447 141.5 463.0Q191 479 240 479Q283 479 321.5 469.0Q360 459 389.5 436.5Q419 414 436.0 374.5Q453 335 453 276V0H323V44Q310 29 296.5 18.0Q283 7 267.0 0.5Q251 -6 233.0 -9.0Q215 -12 193 -12Z" />
      <path fill="#7851A9" transform="translate(1040.000 0)" d="M79 468H210L209 338L195 345Q198 375 211.0 399.5Q224 424 244.5 442.0Q265 460 289.5 469.5Q314 479 340 479Q380 479 412.0 466.0Q444 453 471 425L418 317L415 309L405 313Q402 321 399.5 330.0Q397 339 386 351Q372 361 356.0 368.0Q340 375 321 375Q297 375 276.5 367.5Q256 360 241.0 344.0Q226 328 217.0 303.5Q208 279 208 244V0H79Z" />
      <path fill="#7851A9" transform="translate(1560.000 0)" d="M44 -167 43 469H168V412Q185 436 204.5 450.5Q224 465 247.0 472.0Q270 479 296 479Q334 479 367.0 463.0Q400 447 425.0 415.5Q450 384 464.0 338.0Q478 292 478 231Q478 170 463.0 124.0Q448 78 422.5 47.5Q397 17 363.5 2.5Q330 -12 294 -12Q270 -12 247.0 -7.0Q224 -2 204.5 8.0Q185 18 172 33V-167ZM256 84Q278 84 295.5 92.0Q313 100 326.0 117.5Q339 135 346.0 165.5Q353 196 353 239Q353 283 341.5 315.0Q330 347 309.5 364.0Q289 381 261 381Q239 381 222.0 372.5Q205 364 194.0 345.5Q183 327 177.5 297.5Q172 268 172 228Q172 199 175.5 175.5Q179 152 185.5 135.0Q192 118 202.0 106.5Q212 95 225.5 89.5Q239 84 256 84Z" />
      <path fill="#7851A9" transform="translate(2080.000 0)" d="M57 0V100H187V573H63V673H315V100H443V0Z" />
    </g>
  </g>
</svg>
